<?xml version="1.0" encoding="utf-8"?>
<!-- Generator: Adobe Illustrator 24.1.1, SVG Export Plug-In . SVG Version: 6.00 Build 0)  -->
<svg version="1.1" id="Layer_1" xmlns="http://www.w3.org/2000/svg" xmlns:xlink="http://www.w3.org/1999/xlink" x="0px" y="0px"
	 viewBox="0 0 512 512" style="enable-background:new 0 0 512 512;" xml:space="preserve">
<style type="text/css">
	.st0{fill-rule:evenodd;clip-rule:evenodd;fill:#EA001B;}
	.st1{fill:#FFB533;}
	.st2{fill:#FB8205;}
</style>
<g>
	<path class="st0" d="M149.3,106.7c82.5,0,149.3,66.9,149.3,149.3s-66.9,149.3-149.3,149.3S0,338.5,0,256S66.9,106.7,149.3,106.7"/>
	<path class="st1" d="M362.7,106.7c-41.8,0-79.6,17.2-106.7,44.8c26.4,26.9,42.7,63.8,42.7,104.5s-16.3,77.6-42.7,104.5
		c27.1,27.7,64.9,44.8,106.7,44.8c82.5,0,149.3-66.9,149.3-149.3S445.1,106.7,362.7,106.7"/>
	<path class="st2" d="M256,151.5c-26.4,26.9-42.7,63.8-42.7,104.5s16.3,77.6,42.7,104.5c26.4-26.9,42.7-63.8,42.7-104.5
		S282.4,178.4,256,151.5"/>
</g>
</svg>
