<?xml version="1.0" encoding="utf-8"?>
<!-- Generator: Adobe Illustrator 24.1.1, SVG Export Plug-In . SVG Version: 6.00 Build 0)  -->
<svg version="1.1" id="Layer_1" xmlns="http://www.w3.org/2000/svg" xmlns:xlink="http://www.w3.org/1999/xlink" x="0px" y="0px"
	 viewBox="0 0 512 512" style="enable-background:new 0 0 512 512;" xml:space="preserve">
<style type="text/css">
	.st0{fill:url(#SVGID_1_);}
</style>
<g>
	
		<linearGradient id="SVGID_1_" gradientUnits="userSpaceOnUse" x1="-0.7012" y1="508.915" x2="1.2988" y2="508.915" gradientTransform="matrix(22.7909 -84.3269 -84.3269 -2.3766 43164.5352 1492.2937)">
		<stop  offset="0" style="stop-color:#222357"/>
		<stop  offset="1" style="stop-color:#254AA5"/>
	</linearGradient>
	<path class="st0" d="M264.8,226.2c-0.3,23,20.5,35.9,36.2,43.5c16.1,7.8,21.5,12.9,21.5,19.9c-0.1,10.7-12.9,15.5-24.8,15.7
		c-20.8,0.3-32.9-5.6-42.5-10.1l-7.5,35c9.6,4.4,27.5,8.3,46,8.5c43.4,0,71.9-21.4,72-54.7c0.2-42.2-58.4-44.5-58-63.4
		c0.1-5.7,5.6-11.8,17.6-13.4c5.9-0.8,22.3-1.4,40.8,7.1l7.3-33.9c-10-3.6-22.8-7.1-38.7-7.1C293.8,173.3,265,195.1,264.8,226.2
		 M443.3,176.3c-7.9,0-14.6,4.6-17.6,11.7l-62.1,148.2H407l8.6-23.9h53.1l5,23.9H512l-33.4-159.9H443.3 M449.3,219.5l12.5,60.1
		h-34.3L449.3,219.5 M212.2,176.3l-34.2,159.9h41.4l34.2-159.9H212.2 M150.9,176.3l-43.1,108.9l-17.4-92.6
		c-2-10.3-10.1-16.3-19.1-16.3H1l-1,4.6c14.5,3.1,30.9,8.2,40.8,13.6c6.1,3.3,7.8,6.2,9.8,14.1l33,127.6h43.7l67-159.9H150.9"/>
</g>
</svg>
